<svg width="15" height="18" viewBox="0 0 15 18" fill="none" xmlns="http://www.w3.org/2000/svg">
<path d="M2.70834 7.4165H4.36459V12.6248C4.36459 13.1978 4.83334 13.6665 5.40626 13.6665H9.57293C10.1458 13.6665 10.6146 13.1978 10.6146 12.6248V7.4165H12.2708C13.1979 7.4165 13.6667 6.2915 13.0104 5.63525L8.22918 0.854004C7.82293 0.447754 7.16668 0.447754 6.76043 0.854004L1.97918 5.63525C1.32293 6.2915 1.78126 7.4165 2.70834 7.4165ZM0.208344 16.7915C0.208344 17.3644 0.677094 17.8332 1.25001 17.8332H13.75C14.3229 17.8332 14.7917 17.3644 14.7917 16.7915C14.7917 16.2186 14.3229 15.7498 13.75 15.7498H1.25001C0.677094 15.7498 0.208344 16.2186 0.208344 16.7915Z" fill="#8D4040"/>
</svg>
