<svg width="12" height="13" viewBox="0 0 12 13" fill="none" xmlns="http://www.w3.org/2000/svg">
<path d="M2.55 5.50004H3.7425V9.25004C3.7425 9.66254 4.08 10 4.4925 10H7.4925C7.905 10 8.2425 9.66254 8.2425 9.25004V5.50004H9.435C10.1025 5.50004 10.44 4.69004 9.9675 4.21754L6.525 0.775039C6.2325 0.482539 5.76 0.482539 5.4675 0.775039L2.025 4.21754C1.5525 4.69004 1.8825 5.50004 2.55 5.50004ZM0.75 12.25C0.75 12.6625 1.0875 13 1.5 13H10.5C10.9125 13 11.25 12.6625 11.25 12.25C11.25 11.8375 10.9125 11.5 10.5 11.5H1.5C1.0875 11.5 0.75 11.8375 0.75 12.25Z" fill="white"/>
</svg>
