<svg width="125" height="92" viewBox="0 0 125 92" fill="none" xmlns="http://www.w3.org/2000/svg">
<path d="M1.86972 83.144C1.66172 83.144 1.49372 83.096 1.36572 83C1.25372 82.92 1.18972 82.8 1.17372 82.64C1.17372 82.48 1.21372 82.304 1.29372 82.112L8.03772 66.608C8.14972 66.368 8.28572 66.2 8.44572 66.104C8.60572 65.992 8.76572 65.936 8.92572 65.936C9.11772 65.936 9.28572 65.992 9.42972 66.104C9.58972 66.2 9.71772 66.368 9.81372 66.608L16.5577 82.112C16.6537 82.304 16.6937 82.48 16.6777 82.64C16.6777 82.8 16.6217 82.92 16.5097 83C16.4137 83.096 16.2617 83.144 16.0537 83.144C15.8297 83.144 15.6457 83.088 15.5017 82.976C15.3737 82.848 15.2617 82.68 15.1657 82.472L13.3177 78.128L14.1097 78.488H3.71772L4.53372 78.128L2.68572 82.472C2.58972 82.712 2.46972 82.888 2.32572 83C2.19772 83.096 2.04572 83.144 1.86972 83.144ZM8.90172 67.904L4.82172 77.504L4.26972 77.216H13.5577L13.0537 77.504L8.94972 67.904H8.90172ZM23.606 83.192C22.678 83.192 21.902 83.024 21.278 82.688C20.67 82.352 20.214 81.848 19.91 81.176C19.606 80.504 19.454 79.672 19.454 78.68V71.96C19.454 71.704 19.518 71.512 19.646 71.384C19.774 71.256 19.958 71.192 20.198 71.192C20.422 71.192 20.598 71.256 20.726 71.384C20.854 71.512 20.918 71.704 20.918 71.96V78.608C20.918 79.728 21.15 80.568 21.614 81.128C22.078 81.672 22.806 81.944 23.798 81.944C24.886 81.944 25.766 81.584 26.438 80.864C27.11 80.128 27.446 79.168 27.446 77.984V71.96C27.446 71.704 27.51 71.512 27.638 71.384C27.766 71.256 27.95 71.192 28.19 71.192C28.414 71.192 28.59 71.256 28.718 71.384C28.846 71.512 28.91 71.704 28.91 71.96V82.4C28.91 82.896 28.678 83.144 28.214 83.144C27.99 83.144 27.814 83.08 27.686 82.952C27.558 82.824 27.494 82.64 27.494 82.4V80.024L27.782 80.192C27.478 81.168 26.95 81.912 26.198 82.424C25.446 82.936 24.582 83.192 23.606 83.192ZM37.1597 83.192C36.2957 83.192 35.5757 83.032 34.9997 82.712C34.4237 82.392 33.9917 81.936 33.7037 81.344C33.4157 80.736 33.2717 79.992 33.2717 79.112V72.536H31.4957C31.2877 72.536 31.1197 72.488 30.9917 72.392C30.8637 72.28 30.7997 72.128 30.7997 71.936C30.7997 71.76 30.8637 71.624 30.9917 71.528C31.1197 71.416 31.2877 71.36 31.4957 71.36H33.2717V68.36C33.2717 68.104 33.3357 67.92 33.4637 67.808C33.5917 67.68 33.7757 67.616 34.0157 67.616C34.2397 67.616 34.4157 67.68 34.5437 67.808C34.6717 67.92 34.7357 68.104 34.7357 68.36V71.36H37.9757C38.1997 71.36 38.3677 71.416 38.4797 71.528C38.5917 71.624 38.6477 71.76 38.6477 71.936C38.6477 72.128 38.5917 72.28 38.4797 72.392C38.3677 72.488 38.1997 72.536 37.9757 72.536H34.7357V78.92C34.7357 79.896 34.9357 80.64 35.3357 81.152C35.7357 81.664 36.3997 81.92 37.3277 81.92C37.6477 81.92 37.9117 81.888 38.1197 81.824C38.3437 81.744 38.5277 81.704 38.6717 81.704C38.7837 81.704 38.8797 81.752 38.9597 81.848C39.0557 81.944 39.1037 82.096 39.1037 82.304C39.1037 82.432 39.0717 82.56 39.0077 82.688C38.9597 82.816 38.8637 82.896 38.7197 82.928C38.5437 82.992 38.3037 83.048 37.9997 83.096C37.6957 83.16 37.4157 83.192 37.1597 83.192ZM45.3215 83.192C44.2335 83.192 43.2895 82.944 42.4895 82.448C41.6895 81.952 41.0655 81.256 40.6175 80.36C40.1855 79.464 39.9695 78.4 39.9695 77.168C39.9695 76.256 40.0895 75.432 40.3295 74.696C40.5855 73.96 40.9455 73.328 41.4095 72.8C41.8895 72.256 42.4575 71.848 43.1135 71.576C43.7855 71.288 44.5215 71.144 45.3215 71.144C46.4255 71.144 47.3775 71.392 48.1775 71.888C48.9775 72.384 49.5935 73.088 50.0255 74C50.4735 74.896 50.6975 75.952 50.6975 77.168C50.6975 78.096 50.5695 78.928 50.3135 79.664C50.0735 80.4 49.7135 81.032 49.2335 81.56C48.7695 82.088 48.2095 82.496 47.5535 82.784C46.8975 83.056 46.1535 83.192 45.3215 83.192ZM45.3215 81.968C46.1215 81.968 46.8095 81.784 47.3855 81.416C47.9775 81.032 48.4255 80.48 48.7295 79.76C49.0495 79.04 49.2095 78.176 49.2095 77.168C49.2095 75.648 48.8575 74.472 48.1535 73.64C47.4655 72.808 46.5215 72.392 45.3215 72.392C44.5375 72.392 43.8495 72.584 43.2575 72.968C42.6815 73.336 42.2335 73.88 41.9135 74.6C41.6095 75.304 41.4575 76.16 41.4575 77.168C41.4575 78.704 41.8095 79.888 42.5135 80.72C43.2175 81.552 44.1535 81.968 45.3215 81.968ZM54.6065 83.144C54.3665 83.144 54.1825 83.08 54.0545 82.952C53.9265 82.824 53.8625 82.64 53.8625 82.4V71.96C53.8625 71.704 53.9265 71.512 54.0545 71.384C54.1825 71.256 54.3665 71.192 54.6065 71.192C54.8305 71.192 54.9985 71.256 55.1105 71.384C55.2385 71.512 55.3025 71.704 55.3025 71.96V74.24L55.0385 74.072C55.3265 73.128 55.8145 72.408 56.5025 71.912C57.1905 71.4 58.0145 71.144 58.9745 71.144C59.9985 71.144 60.8145 71.392 61.4225 71.888C62.0465 72.384 62.4545 73.128 62.6465 74.12H62.2865C62.5585 73.224 63.0625 72.504 63.7985 71.96C64.5505 71.416 65.4305 71.144 66.4385 71.144C67.3025 71.144 68.0145 71.312 68.5745 71.648C69.1505 71.984 69.5825 72.488 69.8705 73.16C70.1585 73.816 70.3025 74.648 70.3025 75.656V82.4C70.3025 82.64 70.2385 82.824 70.1105 82.952C69.9825 83.08 69.7985 83.144 69.5585 83.144C69.3345 83.144 69.1585 83.08 69.0305 82.952C68.9025 82.824 68.8385 82.64 68.8385 82.4V75.776C68.8385 74.608 68.6305 73.76 68.2145 73.232C67.8145 72.688 67.1345 72.416 66.1745 72.416C65.1505 72.416 64.3345 72.776 63.7265 73.496C63.1185 74.2 62.8145 75.16 62.8145 76.376V82.4C62.8145 82.64 62.7505 82.824 62.6225 82.952C62.4945 83.08 62.3185 83.144 62.0945 83.144C61.8545 83.144 61.6705 83.08 61.5425 82.952C61.4145 82.824 61.3505 82.64 61.3505 82.4V75.776C61.3505 74.608 61.1425 73.76 60.7265 73.232C60.3265 72.688 59.6545 72.416 58.7105 72.416C57.6705 72.416 56.8465 72.776 56.2385 73.496C55.6305 74.2 55.3265 75.16 55.3265 76.376V82.4C55.3265 82.896 55.0865 83.144 54.6065 83.144ZM77.7348 83.192C76.9508 83.192 76.2468 83.04 75.6228 82.736C75.0148 82.432 74.5268 82.016 74.1588 81.488C73.8068 80.96 73.6308 80.368 73.6308 79.712C73.6308 78.848 73.8468 78.168 74.2788 77.672C74.7108 77.176 75.4388 76.832 76.4628 76.64C77.4868 76.432 78.8948 76.328 80.6868 76.328H81.7188V77.408H80.7108C79.2708 77.408 78.1428 77.472 77.3268 77.6C76.5268 77.712 75.9668 77.928 75.6468 78.248C75.3268 78.568 75.1668 79.016 75.1668 79.592C75.1668 80.312 75.4148 80.896 75.9108 81.344C76.4068 81.792 77.0788 82.016 77.9268 82.016C78.6148 82.016 79.2148 81.856 79.7268 81.536C80.2548 81.2 80.6708 80.744 80.9748 80.168C81.2788 79.592 81.4308 78.936 81.4308 78.2V75.464C81.4308 74.392 81.2148 73.616 80.7828 73.136C80.3508 72.64 79.6628 72.392 78.7188 72.392C78.1108 72.392 77.5188 72.472 76.9428 72.632C76.3828 72.792 75.7828 73.048 75.1428 73.4C74.9668 73.496 74.8068 73.528 74.6628 73.496C74.5348 73.464 74.4308 73.4 74.3508 73.304C74.2868 73.208 74.2388 73.096 74.2068 72.968C74.1908 72.824 74.2148 72.688 74.2788 72.56C74.3428 72.432 74.4548 72.328 74.6148 72.248C75.2868 71.88 75.9668 71.608 76.6548 71.432C77.3588 71.24 78.0388 71.144 78.6948 71.144C79.6388 71.144 80.4148 71.304 81.0228 71.624C81.6468 71.944 82.1028 72.424 82.3908 73.064C82.6948 73.704 82.8468 74.528 82.8468 75.536V82.4C82.8468 82.64 82.7908 82.824 82.6788 82.952C82.5668 83.08 82.3988 83.144 82.1748 83.144C81.9508 83.144 81.7748 83.08 81.6468 82.952C81.5188 82.824 81.4548 82.64 81.4548 82.4V80.192H81.6948C81.5508 80.816 81.2948 81.352 80.9268 81.8C80.5588 82.248 80.1028 82.592 79.5588 82.832C79.0148 83.072 78.4068 83.192 77.7348 83.192ZM91.0659 83.192C90.2019 83.192 89.4819 83.032 88.9059 82.712C88.3299 82.392 87.8979 81.936 87.6099 81.344C87.3219 80.736 87.1779 79.992 87.1779 79.112V72.536H85.4019C85.1939 72.536 85.0259 72.488 84.8979 72.392C84.7699 72.28 84.7059 72.128 84.7059 71.936C84.7059 71.76 84.7699 71.624 84.8979 71.528C85.0259 71.416 85.1939 71.36 85.4019 71.36H87.1779V68.36C87.1779 68.104 87.2419 67.92 87.3699 67.808C87.4979 67.68 87.6819 67.616 87.9219 67.616C88.1459 67.616 88.3219 67.68 88.4499 67.808C88.5779 67.92 88.6419 68.104 88.6419 68.36V71.36H91.8819C92.1059 71.36 92.2739 71.416 92.3859 71.528C92.4979 71.624 92.5539 71.76 92.5539 71.936C92.5539 72.128 92.4979 72.28 92.3859 72.392C92.2739 72.488 92.1059 72.536 91.8819 72.536H88.6419V78.92C88.6419 79.896 88.8419 80.64 89.2419 81.152C89.6419 81.664 90.3059 81.92 91.2339 81.92C91.5539 81.92 91.8179 81.888 92.0259 81.824C92.2499 81.744 92.4339 81.704 92.5779 81.704C92.6899 81.704 92.7859 81.752 92.8659 81.848C92.9619 81.944 93.0099 82.096 93.0099 82.304C93.0099 82.432 92.9779 82.56 92.9139 82.688C92.8659 82.816 92.7699 82.896 92.6259 82.928C92.4499 82.992 92.2099 83.048 91.9059 83.096C91.6019 83.16 91.3219 83.192 91.0659 83.192ZM95.5273 83.096C95.2873 83.096 95.1033 83.024 94.9753 82.88C94.8473 82.736 94.7833 82.544 94.7833 82.304V72.032C94.7833 71.776 94.8473 71.584 94.9753 71.456C95.1033 71.328 95.2873 71.264 95.5273 71.264C95.7513 71.264 95.9273 71.328 96.0553 71.456C96.1833 71.584 96.2473 71.776 96.2473 72.032V82.304C96.2473 82.544 96.1833 82.736 96.0553 82.88C95.9433 83.024 95.7673 83.096 95.5273 83.096ZM95.5273 68.36C95.1913 68.36 94.9273 68.272 94.7353 68.096C94.5593 67.92 94.4713 67.672 94.4713 67.352C94.4713 67.032 94.5593 66.792 94.7353 66.632C94.9273 66.456 95.1913 66.368 95.5273 66.368C95.8633 66.368 96.1193 66.456 96.2953 66.632C96.4873 66.792 96.5833 67.032 96.5833 67.352C96.5833 67.672 96.4873 67.92 96.2953 68.096C96.1193 68.272 95.8633 68.36 95.5273 68.36ZM104.736 83.192C103.648 83.192 102.704 82.944 101.904 82.448C101.104 81.952 100.48 81.256 100.032 80.36C99.5996 79.464 99.3836 78.4 99.3836 77.168C99.3836 76.256 99.5036 75.432 99.7436 74.696C99.9996 73.96 100.36 73.328 100.824 72.8C101.304 72.256 101.872 71.848 102.528 71.576C103.2 71.288 103.936 71.144 104.736 71.144C105.84 71.144 106.792 71.392 107.592 71.888C108.392 72.384 109.008 73.088 109.44 74C109.888 74.896 110.112 75.952 110.112 77.168C110.112 78.096 109.984 78.928 109.728 79.664C109.488 80.4 109.128 81.032 108.648 81.56C108.184 82.088 107.624 82.496 106.968 82.784C106.312 83.056 105.568 83.192 104.736 83.192ZM104.736 81.968C105.536 81.968 106.224 81.784 106.8 81.416C107.392 81.032 107.84 80.48 108.144 79.76C108.464 79.04 108.624 78.176 108.624 77.168C108.624 75.648 108.272 74.472 107.568 73.64C106.88 72.808 105.936 72.392 104.736 72.392C103.952 72.392 103.264 72.584 102.672 72.968C102.096 73.336 101.648 73.88 101.328 74.6C101.024 75.304 100.872 76.16 100.872 77.168C100.872 78.704 101.224 79.888 101.928 80.72C102.632 81.552 103.568 81.968 104.736 81.968ZM113.973 83.144C113.733 83.144 113.549 83.08 113.421 82.952C113.293 82.824 113.229 82.64 113.229 82.4V71.96C113.229 71.704 113.293 71.512 113.421 71.384C113.549 71.256 113.733 71.192 113.973 71.192C114.197 71.192 114.365 71.256 114.477 71.384C114.605 71.512 114.669 71.704 114.669 71.96V74.216L114.405 74.072C114.725 73.112 115.269 72.384 116.037 71.888C116.821 71.392 117.717 71.144 118.725 71.144C119.653 71.144 120.421 71.312 121.029 71.648C121.653 71.968 122.117 72.464 122.421 73.136C122.725 73.808 122.877 74.648 122.877 75.656V82.4C122.877 82.64 122.813 82.824 122.685 82.952C122.557 83.08 122.381 83.144 122.157 83.144C121.917 83.144 121.733 83.08 121.605 82.952C121.477 82.824 121.413 82.64 121.413 82.4V75.776C121.413 74.608 121.181 73.76 120.717 73.232C120.253 72.688 119.517 72.416 118.509 72.416C117.357 72.416 116.429 72.776 115.725 73.496C115.037 74.2 114.693 75.152 114.693 76.352V82.4C114.693 82.896 114.453 83.144 113.973 83.144Z" fill="#8D4040"/>
<g clip-path="url(#clip0_333_377)">
<path d="M11.57 18.5675C10.13 21.0725 9.37246 23.93 9.37246 26.8325V29.525H10.1225H18.23C18.23 29.525 18.23 29.525 18.2375 29.525C19.4975 29.525 20.525 28.4975 20.525 27.2375L21.5525 10.8875C20 11.3 18.71 11.825 17.5925 12.4775C15.0875 13.9475 13.0025 16.0475 11.57 18.5675ZM26 46.52C30.02 46.52 33.29 43.25 33.29 39.23C33.29 38.1275 33.0425 37.07 32.5625 36.065H19.4375C18.9575 37.0625 18.71 38.1275 18.71 39.23C18.71 43.25 21.98 46.52 26 46.52ZM41.8775 31.1975H33.77H18.23H10.1225C8.49496 31.1975 6.94996 31.82 5.76496 32.945C5.36746 33.32 5.50246 33.7625 5.55496 33.89C5.59996 34.01 5.80246 34.4075 6.31996 34.4075H45.6725C46.1975 34.4075 46.3925 34.01 46.445 33.89C46.4975 33.7625 46.6325 33.3275 46.235 32.945C45.0575 31.8125 43.5125 31.1975 41.8775 31.1975ZM29.81 27.2375L28.6625 8.99C28.6325 8.435 28.16 8 27.605 8H24.395C23.8325 8 23.3675 8.435 23.33 8.99L22.1825 27.2825C22.1825 28.1075 21.9125 28.8875 21.4625 29.5175H30.545C30.08 28.88 29.81 28.085 29.81 27.2375ZM33.77 29.525H33.7775H33.785C33.785 29.525 33.785 29.525 33.7925 29.525H41.885H42.635V26.8325C42.635 21.65 40.28 16.8575 36.185 13.6775C34.5875 12.44 32.66 11.51 30.4625 10.895L31.4825 27.1775C31.4825 28.4975 32.51 29.525 33.77 29.525Z" fill="#8D4040"/>
<path d="M38.855 39.2299C38.855 38.0524 39.4625 36.9424 40.505 36.0649H34.37C34.7525 37.0774 34.955 38.1349 34.955 39.2299C34.955 44.1724 30.935 48.1849 26 48.1849C21.0575 48.1849 17.045 44.1649 17.045 39.2299C17.045 38.1424 17.2475 37.0774 17.63 36.0649H11.5025C12.545 36.9349 13.1375 38.0374 13.1375 39.2299C13.1375 41.1349 11.63 42.8224 9.22998 43.6624C9.62748 45.1699 10.22 46.6099 11.0075 47.9599C13.31 46.8574 15.5675 46.9699 16.91 48.3199C18.26 49.6699 18.38 51.9274 17.27 54.2224C18.62 55.0099 20.06 55.6099 21.5675 56.0074C22.4075 53.5999 24.0875 52.0849 26 52.0849C27.905 52.0849 29.5925 53.5999 30.4325 56.0074C31.94 55.6099 33.38 55.0174 34.73 54.2299C33.62 51.9274 33.7475 49.6624 35.0975 48.3199C36.44 46.9699 38.6975 46.8574 40.9925 47.9674C41.78 46.6174 42.3725 45.1774 42.77 43.6624C40.3625 42.8149 38.855 41.1349 38.855 39.2299Z" fill="#8D4040"/>
</g>
<path d="M65.3834 48.48C63.9754 48.48 62.5674 48.368 61.1594 48.144C59.7514 47.952 58.4234 47.648 57.1754 47.232C55.9274 46.784 54.8074 46.24 53.8154 45.6C53.2394 45.216 52.8394 44.752 52.6154 44.208C52.3914 43.664 52.3114 43.136 52.3754 42.624C52.4714 42.08 52.6794 41.616 52.9994 41.232C53.3514 40.816 53.7834 40.56 54.2954 40.464C54.8074 40.368 55.3674 40.512 55.9754 40.896C57.3834 41.728 58.8714 42.336 60.4394 42.72C62.0074 43.104 63.6554 43.296 65.3834 43.296C67.9114 43.296 69.7514 42.88 70.9034 42.048C72.0554 41.184 72.6314 40.08 72.6314 38.736C72.6314 37.616 72.2154 36.736 71.3834 36.096C70.5834 35.456 69.1914 34.928 67.2074 34.512L61.9274 33.408C58.8874 32.768 56.6154 31.696 55.1114 30.192C53.6394 28.656 52.9034 26.64 52.9034 24.144C52.9034 22.576 53.2234 21.152 53.8634 19.872C54.5034 18.592 55.3994 17.488 56.5514 16.56C57.7354 15.632 59.1274 14.928 60.7274 14.448C62.3594 13.936 64.1514 13.68 66.1034 13.68C68.0234 13.68 69.8474 13.92 71.5754 14.4C73.3034 14.88 74.8554 15.584 76.2314 16.512C76.7434 16.864 77.0794 17.296 77.2394 17.808C77.4314 18.32 77.4794 18.832 77.3834 19.344C77.2874 19.824 77.0634 20.24 76.7114 20.592C76.3594 20.944 75.9114 21.152 75.3674 21.216C74.8554 21.28 74.2634 21.12 73.5914 20.736C72.4074 20.064 71.2074 19.584 69.9914 19.296C68.7754 19.008 67.4634 18.864 66.0554 18.864C64.5834 18.864 63.3194 19.072 62.2634 19.488C61.2074 19.904 60.3914 20.496 59.8154 21.264C59.2714 22 58.9994 22.88 58.9994 23.904C58.9994 25.056 59.3834 25.984 60.1514 26.688C60.9194 27.36 62.2314 27.888 64.0874 28.272L69.3194 29.376C72.4874 30.048 74.8394 31.104 76.3754 32.544C77.9434 33.984 78.7274 35.904 78.7274 38.304C78.7274 39.84 78.4074 41.232 77.7674 42.48C77.1594 43.728 76.2634 44.8 75.0794 45.696C73.9274 46.592 72.5354 47.28 70.9034 47.76C69.2714 48.24 67.4314 48.48 65.3834 48.48ZM86.8807 48.384C85.9847 48.384 85.2967 48.128 84.8167 47.616C84.3367 47.104 84.0967 46.4 84.0967 45.504V16.656C84.0967 15.728 84.3527 15.024 84.8647 14.544C85.3767 14.032 86.0807 13.776 86.9767 13.776C87.7767 13.776 88.4007 13.936 88.8487 14.256C89.3287 14.544 89.7607 15.056 90.1447 15.792L102.001 37.728H100.465L112.321 15.792C112.705 15.056 113.121 14.544 113.569 14.256C114.017 13.936 114.641 13.776 115.441 13.776C116.337 13.776 117.025 14.032 117.505 14.544C117.985 15.024 118.225 15.728 118.225 16.656V45.504C118.225 46.4 117.985 47.104 117.505 47.616C117.057 48.128 116.369 48.384 115.441 48.384C114.545 48.384 113.857 48.128 113.377 47.616C112.897 47.104 112.657 46.4 112.657 45.504V23.28H113.713L103.633 41.664C103.313 42.208 102.977 42.608 102.625 42.864C102.273 43.12 101.793 43.248 101.185 43.248C100.577 43.248 100.081 43.12 99.6967 42.864C99.3127 42.576 98.9767 42.176 98.6887 41.664L88.5127 23.232H89.6647V45.504C89.6647 46.4 89.4247 47.104 88.9447 47.616C88.4967 48.128 87.8087 48.384 86.8807 48.384Z" fill="#8D4040"/>
<defs>
<clipPath id="clip0_333_377">
<rect width="48" height="48" fill="white" transform="translate(2 8)"/>
</clipPath>
</defs>
</svg>
