<svg width="48" height="48" viewBox="0 0 48 48" fill="none" xmlns="http://www.w3.org/2000/svg">
<g clip-path="url(#clip0_427_971)">
<path d="M9.56996 10.5675C8.12996 13.0725 7.37246 15.93 7.37246 18.8325V21.525H8.12246H16.23C16.23 21.525 16.23 21.525 16.2375 21.525C17.4975 21.525 18.525 20.4975 18.525 19.2375L19.5525 2.8875C18 3.3 16.71 3.825 15.5925 4.4775C13.0875 5.9475 11.0025 8.0475 9.56996 10.5675ZM24 38.52C28.02 38.52 31.29 35.25 31.29 31.23C31.29 30.1275 31.0425 29.07 30.5625 28.065H17.4375C16.9575 29.0625 16.71 30.1275 16.71 31.23C16.71 35.25 19.98 38.52 24 38.52ZM39.8775 23.1975H31.77H16.23H8.12246C6.49496 23.1975 4.94996 23.82 3.76496 24.945C3.36746 25.32 3.50246 25.7625 3.55496 25.89C3.59996 26.01 3.80246 26.4075 4.31996 26.4075H43.6725C44.1975 26.4075 44.3925 26.01 44.445 25.89C44.4975 25.7625 44.6325 25.3275 44.235 24.945C43.0575 23.8125 41.5125 23.1975 39.8775 23.1975ZM27.81 19.2375L26.6625 0.99C26.6325 0.435 26.16 0 25.605 0H22.395C21.8325 0 21.3675 0.435 21.33 0.99L20.1825 19.2825C20.1825 20.1075 19.9125 20.8875 19.4625 21.5175H28.545C28.08 20.88 27.81 20.085 27.81 19.2375ZM31.77 21.525H31.7775H31.785C31.785 21.525 31.785 21.525 31.7925 21.525H39.885H40.635V18.8325C40.635 13.65 38.28 8.8575 34.185 5.6775C32.5875 4.44 30.66 3.51 28.4625 2.895L29.4825 19.1775C29.4825 20.4975 30.51 21.525 31.77 21.525Z" fill="#8D4040"/>
<path d="M36.855 31.23C36.855 30.0525 37.4625 28.9425 38.505 28.065H32.37C32.7525 29.0775 32.955 30.135 32.955 31.23C32.955 36.1725 28.935 40.185 24 40.185C19.0575 40.185 15.045 36.165 15.045 31.23C15.045 30.1425 15.2475 29.0775 15.63 28.065H9.50248C10.545 28.935 11.1375 30.0375 11.1375 31.23C11.1375 33.135 9.62998 34.8225 7.22998 35.6625C7.62748 37.17 8.21998 38.61 9.00748 39.96C11.31 38.8575 13.5675 38.97 14.91 40.32C16.26 41.67 16.38 43.9275 15.27 46.2225C16.62 47.01 18.06 47.61 19.5675 48.0075C20.4075 45.6 22.0875 44.085 24 44.085C25.905 44.085 27.5925 45.6 28.4325 48.0075C29.94 47.61 31.38 47.0175 32.73 46.23C31.62 43.9275 31.7475 41.6625 33.0975 40.32C34.44 38.97 36.6975 38.8575 38.9925 39.9675C39.78 38.6175 40.3725 37.1775 40.77 35.6625C38.3625 34.815 36.855 33.135 36.855 31.23Z" fill="#8D4040"/>
</g>
<defs>
<clipPath id="clip0_427_971">
<rect width="48" height="48" fill="white"/>
</clipPath>
</defs>
</svg>
